<svg width="45" height="50" viewBox="0 0 45 50" fill="none" xmlns="http://www.w3.org/2000/svg">
<path d="M43.9961 47.7223C43.852 47.714 43.7037 47.7066 43.5583 47.6989C43.8236 47.1231 43.4787 46.3137 42.8527 46.1613C41.0157 45.7132 39.1233 45.9451 37.2284 45.3812C34.1877 44.4763 31.3566 42.8234 28.7435 41.0342C23.582 37.4995 18.0697 30.9615 25.2075 26.3245C26.052 25.7763 25.8067 24.137 24.6557 24.2514C22.8644 24.4299 21.0702 24.5269 19.2736 24.6291C20.2241 24.0899 20.9952 22.8291 21.592 22.083C22.797 20.5762 24.1816 19.9738 26.0881 19.8577C27.2837 19.7849 27.4607 18.1985 26.3635 17.7889C26.1565 17.7116 25.9557 17.3937 25.761 17.2569C25.301 16.9336 24.8298 16.6816 24.32 16.4486C23.8485 16.2332 23.3661 16.0449 22.8826 15.859C25.2775 15.0165 26.7825 12.1083 29.6697 11.9803C30.7194 11.9338 31.1835 10.7301 30.4985 9.94465C29.7644 9.10294 29.2165 8.22855 28.609 7.3956C30.1132 7.32176 31.6142 7.39188 33.1184 7.63438C33.6298 7.71699 34.0652 6.95336 33.5037 6.70449C31.2532 5.70712 28.8053 5.59504 26.4099 5.22849C25.0386 5.01866 24.3409 6.62852 25.478 7.47767C26.3906 8.15923 26.9965 9.06681 27.6116 9.97945C26.6488 10.2764 25.7529 10.7285 24.8658 11.3904C23.5663 12.3601 21.9572 13.3707 21.0104 14.6967C20.6989 15.1331 20.9579 15.7472 21.3926 15.9812C21.4111 16.0916 21.4667 16.1947 21.5779 16.2595C22.1663 16.6024 22.7657 16.9251 23.3551 17.2664C23.4778 17.3374 23.8984 17.5961 24.2947 17.8627C22.8907 18.0718 21.6231 18.604 20.4964 19.6745C19.898 20.2429 19.4034 20.9273 18.8635 21.551C18.1743 22.3473 17.3951 22.8033 17.2528 23.9067C17.1797 24.4737 17.7465 24.8273 18.2091 24.8796C18.2902 24.8889 18.3665 24.869 18.4456 24.8655C18.0749 25.2538 18.2315 26.0385 18.9254 26.0783C19.8265 26.1301 20.7269 26.1803 21.6267 26.2377C17.339 30.4749 19.7626 36.3584 24.3325 40.7136C26.0058 42.3081 29.7814 45.2524 33.6807 47.1852C21.1607 46.3206 7.5723 43.7341 3.55865 30.3442C1.23113 22.5789 5.08815 14.1447 10.3499 8.64768C13.1246 5.74882 16.6777 3.83006 20.5306 2.9416C25.1222 1.88261 28.7406 4.00643 32.7464 5.83568C33.7611 6.2989 34.7635 5.12969 33.9587 4.23751C28.3261 -2.00644 18.6651 -0.551164 12.2884 3.46963C4.80021 8.1911 0.196849 17.148 0.00419411 25.9837C-0.19577 35.1637 6.78341 43.2505 14.7684 46.625C24.0957 50.5669 34.1221 50.2299 43.9961 49.6503C45.2165 49.5783 45.2178 47.7916 43.9961 47.7223Z" fill="#00B2A0"/>
</svg>
